<?xml version="1.0" standalone="no"?>
<!DOCTYPE svg PUBLIC "-//W3C//DTD SVG 20010904//EN"
 "http://www.w3.org/TR/2001/REC-SVG-20010904/DTD/svg10.dtd">
<svg version="1.0" xmlns="http://www.w3.org/2000/svg"
 width="132.000000pt" height="132.000000pt" viewBox="0 0 132.000000 132.000000"
 preserveAspectRatio="xMidYMid meet">
<metadata>
Created by potrace 1.14, written by Peter Selinger 2001-2017
</metadata>
<g transform="translate(0.000000,132.000000) scale(0.100000,-0.100000)"
fill="#000000" stroke="none">
<path d="M0 660 l0 -660 615 0 c338 0 615 2 615 5 0 16 -97 195 -128 237 l-37
50 -103 -5 c-78 -5 -102 -3 -99 6 5 17 143 56 199 56 45 1 50 -2 78 -41 30
-41 84 -191 96 -268 6 -39 8 -40 45 -40 l39 0 0 215 0 215 -49 48 c-27 26 -65
60 -85 76 -35 27 -86 110 -86 139 0 7 14 34 30 61 l30 47 77 -88 c41 -48 77
-90 79 -92 2 -2 4 154 4 347 l0 352 -660 0 -660 0 0 -660z m813 600 c6 -16 17
-30 23 -30 21 0 140 -123 164 -170 12 -24 30 -67 40 -95 10 -28 30 -64 44 -80
25 -27 26 -29 10 -54 -9 -14 -22 -30 -28 -36 -6 -5 -17 -22 -23 -37 -7 -16
-18 -28 -24 -28 -12 0 -64 35 -89 59 -13 13 -15 11 -18 -17 -4 -39 -15 -41
-31 -4 -23 49 -31 134 -15 159 16 26 10 68 -14 96 -23 26 -40 21 -35 -10 4
-27 4 -27 -11 -9 -9 11 -16 23 -16 26 0 7 -46 30 -60 30 -6 0 -5 -11 1 -26 13
-37 6 -40 -32 -12 -24 17 -33 20 -37 10 -3 -10 -15 -4 -38 19 -26 25 -34 29
-34 16 0 -9 -7 -17 -15 -17 -10 0 -15 10 -15 30 0 17 -5 30 -12 30 -6 0 -3 9
7 20 11 12 31 20 49 20 27 0 29 2 15 15 -12 13 -22 14 -45 5 l-29 -10 35 31
c34 29 38 30 101 24 55 -6 67 -4 72 9 5 13 -1 16 -26 17 -18 0 -41 5 -52 10
-18 8 -17 9 5 5 14 -3 41 4 60 14 48 26 60 25 73 -10z m-164 6 c-2 -2 -15 -9
-29 -16 -23 -12 -24 -12 -11 3 7 10 20 17 29 17 8 0 13 -2 11 -4z m-252 -92
c-3 -3 -12 -4 -19 -1 -8 3 -5 6 6 6 11 1 17 -2 13 -5z m327 -318 c-4 -28 -8
-82 -8 -121 l-1 -69 -55 -27 c-96 -47 -93 -47 -155 17 -53 55 -70 94 -42 94
14 0 16 7 20 55 1 14 5 25 10 25 4 0 7 7 7 16 0 12 6 15 21 11 13 -3 28 2 40
14 10 10 23 19 27 19 5 0 8 10 8 21 -1 12 5 24 12 26 8 3 10 -1 5 -14 -6 -16
-5 -16 9 -5 13 10 22 11 37 3 26 -15 38 -14 23 1 -24 24 -11 29 19 7 30 -21
31 -23 23 -73z m68 10 c7 5 9 -2 5 -19 -10 -39 4 -115 27 -150 12 -17 41 -44
64 -60 43 -29 54 -59 28 -74 -7 -4 -21 -24 -30 -43 -9 -19 -24 -45 -34 -58
-17 -21 -17 -20 -14 42 4 66 1 74 -62 191 -9 17 -16 53 -16 81 0 59 12 128 18
101 2 -9 8 -14 14 -11z m453 -112 c23 -30 24 -34 6 -22 -12 7 -21 16 -21 21 0
4 -4 5 -10 2 -5 -3 -10 -4 -10 -1 0 2 -3 11 -6 20 -11 29 13 17 41 -20z m-240
-34 c7 -12 -2 -12 -30 0 -19 8 -19 9 2 9 12 1 25 -3 28 -9z m54 -46 c17 -14
31 -31 31 -37 0 -7 -7 -3 -15 7 -8 11 -27 28 -42 38 -16 10 -23 18 -16 18 6 0
25 -12 42 -26z m-569 -72 c0 -33 -35 -88 -102 -159 -57 -61 -60 -83 -23 -187
13 -39 23 -72 21 -74 -8 -7 -44 40 -71 93 -18 37 -28 72 -29 106 l-1 52 73 60
c40 32 82 76 95 98 26 46 37 49 37 11z m170 -274 c0 -19 -2 -20 -10 -8 -13 19
-13 30 0 30 6 0 10 -10 10 -22z m100 -22 l-21 -21 18 32 c10 18 20 28 22 22 2
-6 -6 -21 -19 -33z"/>
<path d="M828 1147 c12 -13 19 -27 15 -30 -3 -4 2 -7 12 -7 16 0 14 4 -10 30
-16 17 -31 30 -34 30 -2 0 5 -10 17 -23z"/>
</g>
</svg>
